<svg xmlns="http://www.w3.org/2000/svg" xmlns:xlink="http://www.w3.org/1999/xlink" width="178.962" height="47" viewBox="0 0 178.962 47"><defs><style>.a{clip-path:url(#a);}.b{fill:#ff9800;}.c{clip-path:url(#b);}.d{fill:#fff;}.e{clip-path:url(#c);}.f{clip-path:url(#d);}.g{clip-path:url(#e);}</style><clipPath id="a"><path d="M114.327,344H280.635a6.346,6.346,0,0,1,6.327,6.327v34.346A6.346,6.346,0,0,1,280.635,391H114.327A6.346,6.346,0,0,1,108,384.673V350.327A6.346,6.346,0,0,1,114.327,344Z" transform="translate(-108 -344)"/></clipPath><clipPath id="b"><path d="M373.334,406.169c-4.338,3.209-10.665,4.926-16.088,4.926a29.025,29.025,0,0,1-19.659-7.5c-.407-.362-.045-.859.452-.587a39.591,39.591,0,0,0,19.659,5.2,39.091,39.091,0,0,0,15-3.073c.723-.271,1.311.5.633,1.039Z" transform="translate(-337.411 -402.928)"/></clipPath><clipPath id="c"><path d="M414.332,403.163c-.542-.723-3.661-.362-5.062-.136-.407.045-.5-.316-.09-.587,2.486-1.762,6.553-1.22,7.05-.678.452.587-.136,4.7-2.486,6.643-.362.271-.723.136-.542-.271.5-1.311,1.672-4.248,1.13-4.971Z" transform="translate(-408.917 -401.236)"/></clipPath><clipPath id="d"><path d="M372.388,371.19c3.435,0,5.333,2.938,5.333,6.688,0,3.615-2.034,6.508-5.333,6.508-3.344,0-5.2-2.937-5.2-6.643-.045-3.661,1.808-6.553,5.2-6.553Zm-22.37-.09a4.945,4.945,0,0,1,3.48,1.175c1.13,1.039,1.039,2.486,1.039,3.977v3.615a3.41,3.41,0,0,0,.859,2.169c.136.226.181.452,0,.587-.5.407-1.356,1.13-1.808,1.537a.474.474,0,0,1-.542.045,6.736,6.736,0,0,1-1.356-1.537,4.511,4.511,0,0,1-3.8,1.672,3.31,3.31,0,0,1-3.48-3.615,3.957,3.957,0,0,1,2.486-3.8,15.991,15.991,0,0,1,4.384-.813v-.271a2.988,2.988,0,0,0-.271-1.672,1.57,1.57,0,0,0-1.311-.587,1.731,1.731,0,0,0-1.853,1.4c-.045.226-.181.407-.407.407l-2.26-.271a.411.411,0,0,1-.362-.452c.542-2.757,2.983-3.57,5.2-3.57Zm-30.414,0a4.945,4.945,0,0,1,3.48,1.175c1.085,1.039,1.039,2.4,1.039,3.841v3.751a3.41,3.41,0,0,0,.859,2.169c.136.226.181.452,0,.587-.5.407-1.356,1.13-1.808,1.537a.474.474,0,0,1-.542.045,6.736,6.736,0,0,1-1.356-1.537,4.511,4.511,0,0,1-3.8,1.672,3.31,3.31,0,0,1-3.48-3.615,3.957,3.957,0,0,1,2.486-3.8,15.991,15.991,0,0,1,4.384-.813v-.271a2.988,2.988,0,0,0-.271-1.672,1.57,1.57,0,0,0-1.311-.587,1.731,1.731,0,0,0-1.853,1.4c-.045.226-.181.407-.407.407l-2.214-.226a.411.411,0,0,1-.362-.452c.5-2.8,2.938-3.615,5.152-3.615Zm19.523.09a3.212,3.212,0,0,1,2.666,1.311c.723.994.587,2.44.587,3.751v7.5a.446.446,0,0,1-.452.407h-2.3a.477.477,0,0,1-.407-.407v-6.327a17.931,17.931,0,0,0-.045-2.214,1.237,1.237,0,0,0-1.356-1.039,1.536,1.536,0,0,0-1.4.994,6.533,6.533,0,0,0-.226,2.124v6.462a.446.446,0,0,1-.452.407h-2.3a.477.477,0,0,1-.407-.407v-6.327c0-1.311.226-3.3-1.4-3.3-1.537,0-1.582,1.582-1.582,2.938v6.643a.481.481,0,0,1-.452.407h-2.3c-.226-.045-.407-.181-.407-.407V371.823a.446.446,0,0,1,.452-.407H329.5a.4.4,0,0,1,.407.407v1.537h.045a3.146,3.146,0,0,1,6.011,0,3.236,3.236,0,0,1,3.163-2.169Zm46.5,0a3.051,3.051,0,0,1,2.712,1.4,7.1,7.1,0,0,1,.588,3.57V383.8a.44.44,0,0,1-.452.362h-2.3c-.226-.045-.407-.181-.407-.362v-6.462c0-1.311.136-3.209-1.446-3.209a1.55,1.55,0,0,0-1.356.949,5.4,5.4,0,0,0-.362,2.26v6.372a.481.481,0,0,1-.452.407h-2.3a.477.477,0,0,1-.407-.407V371.778a.481.481,0,0,1,.452-.407h2.169a.4.4,0,0,1,.407.362v1.808h.045c.633-1.582,1.491-2.35,3.118-2.35Zm-20.291.226a.446.446,0,0,1,.452.407v1.446c0,.226-.226.542-.587,1.085l-3.932,5.6a8.445,8.445,0,0,1,4.338.9.84.84,0,0,1,.407.678v1.808c0,.271-.271.542-.542.407a8.721,8.721,0,0,0-8.044.045c-.271.136-.542-.136-.542-.407v-1.717a2.165,2.165,0,0,1,.271-1.175l4.564-6.553h-3.977a.446.446,0,0,1-.452-.407v-1.717a.379.379,0,0,1,.407-.407h7.638Zm-14.1,6.553c-1.672,0-3.435.362-3.435,2.35,0,.994.542,1.672,1.4,1.672a1.83,1.83,0,0,0,1.582-1.039,4.677,4.677,0,0,0,.407-2.486h0v-.5Zm-30.369,0c-1.672,0-3.435.362-3.435,2.35,0,.994.542,1.672,1.4,1.672a1.83,1.83,0,0,0,1.582-1.039,4.055,4.055,0,0,0,.407-2.169Zm51.519-4.338c-1.672,0-1.808,2.26-1.808,3.706v.407c0,1.536.09,4.2,1.808,4.2,1.808,0,1.9-2.486,1.9-4.022a10.64,10.64,0,0,0-.362-3.163,1.484,1.484,0,0,0-1.537-1.13Z" transform="translate(-314 -371.1)"/></clipPath><clipPath id="e"><path d="M135.3,395.307a3.98,3.98,0,0,0,1.311-.226,2.341,2.341,0,0,0,.949-.633,2.825,2.825,0,0,0,.587-.9,3.147,3.147,0,0,0,.226-1.13,2.154,2.154,0,0,0-.226-.994,2,2,0,0,0-.542-.678,4.292,4.292,0,0,0-.768-.452,5.316,5.316,0,0,0-.9-.316,7.173,7.173,0,0,1-.9-.316,4,4,0,0,1-.768-.362,1.583,1.583,0,0,1-.768-1.356,1.874,1.874,0,0,1,.136-.723,1.72,1.72,0,0,1,.407-.587,1.7,1.7,0,0,1,.678-.407,2.914,2.914,0,0,1,.9-.136,2.278,2.278,0,0,1,.859.136,3.657,3.657,0,0,1,.587.271,2.5,2.5,0,0,1,.362.271.413.413,0,0,0,.226.136c.09,0,.136-.045.181-.136h0l.181-.316a2.862,2.862,0,0,0-1.085-.723,3.293,3.293,0,0,0-1.356-.226,3.023,3.023,0,0,0-1.175.226,2.333,2.333,0,0,0-.859.542,2.969,2.969,0,0,0-.542.768,2.222,2.222,0,0,0-.181.949,2.356,2.356,0,0,0,.226,1.039,2,2,0,0,0,.542.678,4.29,4.29,0,0,0,.768.452,5.317,5.317,0,0,0,.9.316c.316.09.587.181.9.271a4.006,4.006,0,0,1,.768.362,1.558,1.558,0,0,1,.542.542,1.607,1.607,0,0,1,.226.859,1.834,1.834,0,0,1-.181.859,2.427,2.427,0,0,1-.452.723,2.162,2.162,0,0,1-.768.452,2.432,2.432,0,0,1-.994.181,3.143,3.143,0,0,1-.723-.09c-.226-.045-.407-.136-.587-.181a3.975,3.975,0,0,1-.452-.271,1.966,1.966,0,0,1-.316-.271c-.09-.09-.181-.136-.226-.181a.65.65,0,0,0-.136-.09.235.235,0,0,0-.181.09h0l-.181.316a3.444,3.444,0,0,0,1.22.9,3.545,3.545,0,0,0,1.582.362Zm5.468-.09v-4.61h5.965v4.61h.678v-9.581h-.678v4.474h-6.011v-4.474h-.678v9.581Zm8.315,0a.272.272,0,0,0,.181-.045c.045-.045.09-.09.09-.136h0l1.13-2.8h4.7l1.13,2.8c0,.045.045.09.09.136a.166.166,0,0,0,.136.045h.542l-3.932-9.581h-.678l-3.932,9.581Zm5.875-3.48h-4.293l1.943-4.836a.642.642,0,0,0,.09-.271,1.15,1.15,0,0,1,.09-.316c.045.226.136.407.181.587h0l1.988,4.836Zm3.932,3.48v-4.339h1.491c.045,0,.136.045.181.045s.09.045.136.09.09.09.09.136h0l3.073,3.887c.045.045.09.136.136.136a.272.272,0,0,0,.181.045h.587l-3.3-4.158c-.09-.09-.181-.226-.271-.271a4.142,4.142,0,0,0,1.13-.271,2.78,2.78,0,0,0,.859-.542,2.565,2.565,0,0,0,.542-.813,2.432,2.432,0,0,0,.181-.994,2.334,2.334,0,0,0-.813-1.9,4.1,4.1,0,0,0-2.486-.633h-2.44v9.581Zm1.627-4.836h-1.672v-4.2h1.762a3.326,3.326,0,0,1,1.943.5,1.779,1.779,0,0,1,.678,1.537,2.023,2.023,0,0,1-.181.9,2,2,0,0,1-.542.678,3.044,3.044,0,0,1-.859.452,7.029,7.029,0,0,1-1.13.136Zm11.117,4.836v-.588h-5.062v-4.022h4.2v-.542h-4.2v-3.887h5.062v-.587H165.9v9.626Zm5.513,0v-9.581h-.678v9.581Zm5.2,0v-8.993h3.389v-.587H178.28v.587h3.389v8.993Zm11.208.09a4.835,4.835,0,0,0,1.853-.362,3.953,3.953,0,0,0,1.446-.994,4.414,4.414,0,0,0,.949-1.537,5.656,5.656,0,0,0,.316-2.034,5.566,5.566,0,0,0-.316-1.988,4.414,4.414,0,0,0-.949-1.537,3.953,3.953,0,0,0-1.446-.994,4.928,4.928,0,0,0-3.706,0,4.589,4.589,0,0,0-1.446.994,4.414,4.414,0,0,0-.949,1.537,5.566,5.566,0,0,0-.316,1.988,6,6,0,0,0,.316,2.034,4.414,4.414,0,0,0,.949,1.537,4.59,4.59,0,0,0,1.446.994,4.117,4.117,0,0,0,1.853.362Zm0-.588a4.471,4.471,0,0,1-1.582-.271,2.992,2.992,0,0,1-1.22-.859,4.015,4.015,0,0,1-.813-1.356,6.161,6.161,0,0,1,0-3.615,3.4,3.4,0,0,1,.813-1.356,4.586,4.586,0,0,1,1.22-.859,4.284,4.284,0,0,1,1.582-.316,3.668,3.668,0,0,1,1.582.316,3.479,3.479,0,0,1,1.988,2.214,6.161,6.161,0,0,1,0,3.615,3.479,3.479,0,0,1-1.988,2.214,4.655,4.655,0,0,1-1.582.271Zm6.869.5v-8.5h0l6.237,8.315.09.09c.045,0,.09.045.136.045h.316V385.59h-.587v8.451h0l-6.237-8.315-.09-.09c-.045,0-.09-.045-.136-.045h-.362v9.626Z" transform="translate(-132.5 -385.5)"/></clipPath></defs><g transform="translate(-108 -344)"><g transform="translate(108 344)"><g class="a"><rect class="b" width="183" height="51" transform="translate(-2 -2)"/></g></g><g transform="translate(211.676 370.631)"><g class="c" transform="translate(0 0)"><rect class="d" width="40.763" height="12.654" transform="translate(-2.265 -2.272)"/></g></g><g transform="translate(243.991 369.866)"><g class="e" transform="translate(0 0)"><rect class="d" width="11.976" height="11.84" transform="translate(-2.267 -2.276)"/></g></g><g transform="translate(201.096 356.247)"><g class="f" transform="translate(0 0)"><rect class="d" width="79.448" height="17.851" transform="translate(-2.26 -2.26)"/></g></g><g transform="translate(119.072 362.755)"><g class="g" transform="translate(0 0)"><rect class="d" width="79.267" height="14.326" transform="translate(-2.26 -2.26)"/></g></g></g></svg>